<svg width="24" height="60" viewBox="0 0 24 60" fill="none" xmlns="http://www.w3.org/2000/svg">
<path d="M22.5454 24.0715C22.6667 24.0715 23.1515 23.8291 23.1515 21.8897C23.1515 19.9503 22.7879 19.7079 22.5454 19.7079H13.0909L14.9091 24.0715H22.5454Z" fill="black"/>
<path d="M16.9697 29.2836H23.2728C23.394 29.2836 23.8788 29.0412 23.8788 27.1018C23.8788 25.1624 23.5152 24.92 23.2728 24.92H15.1515L16.9697 29.2836Z" fill="black"/>
<path d="M22.5454 35.3442H13.9394L15.7576 39.7078H22.5454C22.6667 39.7078 23.1515 39.4654 23.1515 37.526C23.0303 35.5866 22.6667 35.3442 22.5454 35.3442Z" fill="black"/>
<path d="M23.3939 30.1321H11.8788L13.697 34.4957H23.3939C23.5151 34.4957 24 34.2533 24 32.3139C23.8788 30.3745 23.5151 30.1321 23.3939 30.1321Z" fill="black"/>
<path d="M22.5455 35.3443H13.9394L15.7576 39.7079H22.5455C22.6667 39.7079 23.1515 39.4655 23.1515 37.5261C23.0303 35.5867 22.6667 35.3443 22.5455 35.3443Z" fill="black"/>
<path d="M23.3939 30.1321H11.8788L13.697 34.4957H23.3939C23.5151 34.4957 24 34.2533 24 32.3139C23.8788 30.3745 23.5151 30.1321 23.3939 30.1321Z" fill="black"/>
<path d="M6.54546 29.405L4.48485 24.1929H9.21213L11.3939 29.405H15.8788L11.8788 19.8293H2.06061C1.33333 19.8293 0.848485 19.8293 0.484848 20.9202C0.121212 22.2535 0 24.799 0 29.7687C0 34.7384 -4.69613e-07 37.2838 0.484848 38.6172C0.848485 39.7081 1.21212 39.7081 2.06061 39.7081H10.6667L6.54546 29.405Z" fill="black"/>
<path d="M2.65786 0L8.00332 12.8485H1.20001L3.38679 18.5455H17.2364L2.65786 0Z" fill="#FCDC49"/>
<path d="M20.7273 46.7453L18.4225 41.0564H15.2686L8.71831 25.2H5.92835L12.4787 41.0564H4.47272L19.2716 59.4546L13.9343 46.7453H20.7273Z" fill="#FCDC49"/>
</svg>
